<?xml version="1.0" standalone="no"?>
<!DOCTYPE svg PUBLIC "-//W3C//DTD SVG 20010904//EN"
 "http://www.w3.org/TR/2001/REC-SVG-20010904/DTD/svg10.dtd">
<svg version="1.0" xmlns="http://www.w3.org/2000/svg"
 width="559.000000pt" height="446.000000pt" viewBox="0 0 559.000000 446.000000"
 preserveAspectRatio="xMidYMid meet">

<g transform="translate(0.000000,446.000000) scale(0.100000,-0.100000)"
fill="#000000" stroke="none">
<path d="M5294 4108 c-5 -7 -8 -35 -8 -62 l-1 -50 -90 -68 c-259 -196 -942
-688 -1210 -871 -457 -313 -586 -397 -589 -385 -5 14 -34 268 -66 568 -24 226
-55 365 -105 467 -44 90 -71 122 -136 164 -83 53 -161 69 -334 69 -303 0 -566
-68 -950 -245 -94 -43 -125 -69 -125 -105 0 -57 51 -66 121 -22 87 56 196 102
314 134 114 31 129 33 290 33 164 0 172 -1 237 -28 113 -48 182 -123 229 -248
40 -104 128 -523 184 -874 9 -55 18 -112 21 -127 5 -26 -3 -33 -143 -124 -180
-118 -450 -298 -556 -370 -42 -30 -112 -78 -155 -108 -1036 -715 -1128 -783
-1313 -966 -230 -227 -299 -371 -239 -494 30 -62 109 -156 131 -156 26 0 46
36 53 99 16 124 160 337 384 565 165 168 423 381 763 632 267 196 1076 744
1098 744 5 0 12 -26 16 -57 3 -32 22 -168 41 -303 18 -135 41 -299 50 -365 99
-731 182 -889 475 -903 117 -6 218 13 373 70 201 73 433 199 622 339 58 43 67
66 38 107 -22 32 -56 27 -111 -16 -250 -195 -511 -282 -677 -226 -95 32 -194
150 -257 304 -51 127 -124 459 -189 865 -11 72 -29 186 -41 255 -11 69 -21
135 -23 148 -3 20 10 32 83 79 47 30 122 78 165 107 139 90 284 180 571 357
154 95 303 187 330 204 148 94 641 389 805 482 149 85 168 129 109 253 -42 91
-92 140 -140 140 -21 0 -41 -6 -45 -12z"/>
</g>
</svg>
